<svg width="310" height="307" viewBox="0 0 310 307" fill="none" xmlns="http://www.w3.org/2000/svg">
<g clip-path="url(#clip0_1_2)">
<path d="M307.294 121.459C305.113 110.136 301.663 99.0941 297.008 88.5438C283.02 57.4611 258.873 32.0616 228.537 16.5198C198.201 0.977934 163.48 -3.78169 130.081 3.02312C124.415 4.15919 118.821 5.63121 113.33 7.4314C105.379 9.41244 97.6123 12.067 90.1126 15.3663C70.9782 23.8612 53.8099 36.226 39.689 51.6822C25.5681 67.1383 14.8005 85.3509 8.06433 105.173C1.32814 124.995 -1.23073 145.997 0.548863 166.857C2.32846 187.716 8.40797 207.982 18.4045 226.376C21.9717 232.923 25.9982 239.208 30.4539 245.185C34.9747 251.089 39.8837 256.685 45.1481 261.936C66.0404 282.726 92.5282 296.99 121.384 302.99C150.24 308.991 180.219 306.47 207.667 295.733L217.365 291.619L226.182 287.211C232.111 283.88 237.806 280.149 243.227 276.043L251.162 269.871L254.689 266.639L257.921 263.994L263.799 258.704L265.856 256.94L267.62 254.883L272.91 249.005C279.529 241.506 285.341 233.33 290.249 224.613C297.962 211.163 303.515 196.585 306.706 181.412C310.89 161.666 311.09 141.283 307.294 121.459ZM255.864 260.467L252.338 263.7L248.811 266.932L241.17 273.104C235.833 277.007 230.236 280.542 224.418 283.684L215.602 288.092L206.197 291.913L191.797 296.615H190.328C170.663 300.718 150.373 300.818 130.669 296.909C119.431 294.622 108.488 291.073 98.0476 286.329C87.0338 281.34 76.671 275.023 67.1896 267.52C57.1475 259.474 48.1619 250.193 40.446 239.895C36.4479 234.563 32.815 228.966 29.5722 223.143C27.8089 220.205 26.3395 217.266 24.87 214.033C23.4006 210.8 21.9312 207.861 21.0495 204.629C11.5055 179.761 8.81588 152.786 13.2619 126.524C17.7079 100.262 29.1263 75.6753 46.3237 55.3348L48.6748 52.9837L50.1442 51.2204L51.9075 49.4571L55.4341 46.2243L62.4874 40.0527C79.2021 26.508 98.6618 16.7592 119.518 11.4817C140.375 6.20414 162.129 5.52408 183.274 9.4886C198.405 12.2193 212.994 17.38 226.476 24.7707C235.197 29.5575 243.375 35.2724 250.868 41.816L256.746 47.106L258.803 48.8693L260.566 50.9265L265.856 56.8042C282.599 75.9622 294.046 99.1612 299.065 124.104C302.942 143.712 302.842 163.9 298.771 183.469C296.468 194.607 292.919 205.451 288.192 215.796C283.026 226.845 276.511 237.21 268.795 246.654L262.624 253.708L255.864 260.467ZM123.91 298.672C109.844 295.764 96.2794 290.813 83.6472 283.978C77.3018 280.497 71.2127 276.569 65.4262 272.222C59.733 267.882 54.3333 263.17 49.2625 258.116C29.3466 237.964 15.6948 212.473 9.95782 184.727C4.22082 156.981 6.64425 128.167 16.9351 101.769C18.1107 98.536 19.5801 95.5971 20.7556 92.6582L22.5189 88.8377C17.9594 99.1947 14.6067 110.042 12.5268 121.165C6.89024 149.188 9.3364 178.237 19.5801 204.923C20.7556 208.155 22.2251 211.388 23.6945 214.327C25.1639 217.266 26.6333 220.499 28.3967 223.437C31.6303 229.359 35.2633 235.054 39.2704 240.483C47.0456 250.912 56.133 260.296 66.3079 268.402C75.9638 276.039 86.5256 282.455 97.7537 287.504C124.17 299.396 153.467 303.377 182.099 298.966C162.875 302.724 143.095 302.624 123.91 298.672ZM305.825 181.412C302.735 196.571 297.281 211.149 289.661 224.613C284.848 233.317 279.135 241.493 272.616 249.005L267.326 254.883L265.562 256.94L263.505 258.704L257.921 263.7H258.509L265.269 256.646L271.44 249.299C279.088 239.545 285.504 228.885 290.543 217.56C303.403 188.373 306.695 155.864 299.947 124.692C298.198 116.462 295.74 108.399 292.6 100.593C290.032 94.0125 286.987 87.628 283.489 81.4906C278.578 72.7762 272.766 64.6006 266.15 57.0981L260.86 51.2204L259.097 49.1632L257.04 47.3999L251.162 42.1099C243.792 35.1204 235.716 28.9155 227.063 23.5951C220.935 19.9961 214.55 16.8528 207.961 14.1908C200.163 10.9534 192.1 8.3969 183.862 6.54975C171.612 3.85273 159.077 2.66835 146.539 3.02312C169.202 1.0339 192.02 4.25058 213.251 12.4275L222.655 16.248L231.766 20.9501C237.589 24.1914 243.186 27.8244 248.517 31.8239L256.158 37.9955L259.685 41.2283L263.211 44.461L269.971 51.2204L276.142 58.2736C283.751 67.7377 290.166 78.1015 295.245 89.1316C299.973 99.4766 303.522 110.321 305.825 121.459C309.814 141.145 309.814 161.432 305.825 181.118V181.412Z" fill="url(#paint0_linear_1_2)"/>
<path d="M158.985 99.4124L157.439 98.998L156.195 103.639L157.741 104.053L158.985 99.4124ZM142.517 109.507L136.724 107.957L136.31 109.502L142.103 111.053L142.517 109.507ZM165.419 103.605L164.288 102.473L160.891 105.871L162.022 107.002L165.419 103.605ZM191.182 92.5665L175.327 76.7122L174.196 77.8434L190.05 93.6969L191.182 92.5665ZM151.917 101.239L150.366 95.4442L148.821 95.8586L150.371 101.653L151.917 101.239ZM175.611 127.951C175.455 127.797 175.25 127.718 175.045 127.718C174.84 127.718 174.635 127.797 174.479 127.951L170.515 131.917C170.204 132.228 170.204 132.737 170.515 133.048L172.215 134.748C172.37 134.903 172.575 134.981 172.781 134.981C172.986 134.981 173.19 134.903 173.347 134.748L177.311 130.783C177.622 130.471 177.622 129.963 177.311 129.651L175.611 127.951ZM172.781 133.052L172.212 132.483L175.045 129.648L175.614 130.217L172.781 133.052ZM194.066 92.0521L189.51 87.4959L175.895 73.88L175.888 73.8864C175.273 73.3 174.48 73 173.683 73C172.862 73 172.042 73.312 171.418 73.9344C171.418 73.9344 159.503 83.5845 152.144 85.283L148.983 84.6197C144.893 87.5775 140.822 91.0224 136.892 94.8946C133.02 98.8244 129.576 102.896 126.617 106.986L127.28 110.146C125.582 117.507 115.931 129.421 115.931 129.421C114.704 130.647 114.692 132.641 115.883 133.892L115.877 133.896L115.929 133.948C115.929 133.948 115.93 133.949 115.931 133.951L124.963 142.982L133.996 152.016L134.049 152.068C134.672 152.692 135.493 153.003 136.314 153.003C137.134 153.003 137.955 152.692 138.579 152.068C138.579 152.068 150.493 142.418 157.854 140.719L161.013 141.383C163.584 139.524 166.145 137.453 168.67 135.225L169.153 132.817L170.284 131.686L173.682 128.287L174.814 127.156L177.222 126.673C179.45 124.146 181.52 121.587 183.38 119.017L182.716 115.856C184.414 108.495 194.065 96.5811 194.065 96.5811C195.312 95.3362 195.312 93.2985 194.066 92.0521ZM175.894 76.1433L187.925 88.1743L191.749 91.9985L189.482 94.2642L189.482 94.2634L188.35 95.3946L188.351 95.3954L186.085 97.6619L186.085 97.6611L184.953 98.7932L184.954 98.794L182.689 101.06L182.687 101.059L181.556 102.19L181.557 102.191L173.519 110.23C172.858 109.202 172.139 108.198 171.394 107.206C171.31 107.092 171.22 106.98 171.134 106.866C170.734 106.343 170.33 105.822 169.907 105.31C169.717 105.08 169.515 104.853 169.319 104.623C168.961 104.204 168.606 103.783 168.233 103.373C167.881 102.984 167.506 102.602 167.137 102.22C166.898 101.97 166.67 101.715 166.425 101.469C166.185 101.229 165.934 101.007 165.691 100.772C165.302 100.397 164.914 100.018 164.52 99.6588C164.118 99.294 163.705 98.9468 163.296 98.5972C163.057 98.3924 162.819 98.1804 162.578 97.9811C162.073 97.5643 161.561 97.1667 161.046 96.7731C160.924 96.6803 160.803 96.5843 160.681 96.4923C159.691 95.749 158.69 95.0322 157.664 94.3746L165.703 86.3358L165.705 86.3366L166.836 85.2054L166.834 85.2046L169.1 82.9389L169.102 82.9397L170.233 81.8084L170.231 81.8076L172.497 79.5419L172.498 79.5427L173.63 78.4114L173.628 78.4098L175.894 76.1433ZM175.054 116.555C173.721 118.247 170.243 122.565 166.837 125.971C164.214 128.593 159.267 132.664 157.402 134.181C155.701 133.442 154.006 132.54 152.336 131.506C149.311 129.601 146.31 127.226 143.488 124.406C140.667 121.584 138.294 118.584 136.388 115.558C135.353 113.887 134.45 112.192 133.71 110.491C135.228 108.626 139.298 103.68 141.921 101.057C144.875 98.1035 149.554 94.285 151.349 92.8433C154.959 94.4114 158.545 96.6779 161.916 99.5068C161.976 99.558 162.037 99.6116 162.099 99.6628C162.571 100.063 163.038 100.476 163.5 100.896C163.584 100.972 163.667 101.047 163.75 101.123C164.27 101.604 164.785 102.095 165.292 102.601C165.8 103.109 166.292 103.625 166.773 104.147C166.848 104.227 166.919 104.307 166.991 104.387C167.417 104.855 167.835 105.327 168.239 105.804C168.287 105.861 168.337 105.918 168.384 105.974C171.217 109.348 173.485 112.939 175.054 116.555ZM172.426 75.1785L172.49 75.1257L172.55 75.0665C172.85 74.7657 173.252 74.6001 173.683 74.6001C174.087 74.6001 174.464 74.7505 174.758 75.0169L172.497 77.277L171.29 76.0721C171.935 75.5729 172.342 75.2457 172.426 75.1785ZM170.006 77.0506L171.365 78.409L169.099 80.6748L167.383 78.9587C168.373 78.261 169.259 77.6098 170.006 77.0506ZM166.048 79.8867L167.968 81.806L165.702 84.0717L163.316 81.686C164.264 81.0852 165.184 80.4779 166.048 79.8867ZM128.839 110.506L128.918 110.162L128.846 109.816L128.329 107.353C131.186 103.465 134.447 99.6548 138.015 96.0339C141.654 92.4489 145.464 89.1871 149.35 86.331L151.815 86.8478L152.16 86.9206L152.503 86.8414C155.333 86.1886 158.732 84.4717 161.918 82.55L164.571 85.2022L156.225 93.5489C154.505 92.5457 152.785 91.6841 151.092 91.0008C151.092 91.0008 144.599 96.1163 140.79 99.9252C137.43 103.285 131.865 110.227 131.865 110.227C132.549 111.919 133.41 113.64 134.414 115.361L127.2 122.574L124.547 119.921C126.469 116.735 128.186 113.335 128.839 110.506ZM123.683 121.318L126.07 123.706L123.803 125.971L121.883 124.051C122.475 123.185 123.082 122.268 123.683 121.318ZM120.956 125.386L122.673 127.102L120.406 129.368L119.046 128.009C119.606 127.262 120.258 126.374 120.956 125.386ZM117.063 130.553L117.122 130.494L117.175 130.428C117.242 130.345 117.57 129.939 118.07 129.294L119.276 130.5L117.014 132.76C116.444 132.132 116.456 131.159 117.063 130.553ZM133.997 149.754L128.842 144.599L118.141 133.896L120.407 131.631L120.408 131.632L121.539 130.501L121.539 130.499L123.805 128.234L123.806 128.235L124.937 127.104L124.936 127.102L127.202 124.837L127.203 124.838L128.334 123.707L128.333 123.706L135.265 116.774C135.319 116.858 135.381 116.941 135.435 117.025C137.31 119.942 139.611 122.835 142.335 125.558C145.059 128.282 147.951 130.583 150.869 132.457C150.953 132.512 151.035 132.574 151.12 132.629L144.188 139.561L144.188 139.559L143.056 140.69L143.057 140.692L140.791 142.958L139.659 144.089L137.394 146.355L137.393 146.353L136.262 147.484L136.262 147.486L133.997 149.754ZM137.572 150.825L137.506 150.878L137.447 150.937C137.147 151.238 136.745 151.404 136.314 151.404C135.884 151.404 135.482 151.238 135.181 150.938L135.128 150.885L137.394 148.618L138.708 149.932C138.062 150.43 137.656 150.758 137.572 150.825ZM139.992 148.954L138.526 147.487L140.791 145.221L142.616 147.044C141.626 147.743 140.739 148.392 139.992 148.954ZM143.95 146.118L141.922 144.09L144.188 141.824L146.682 144.318C145.733 144.919 144.815 145.525 143.95 146.118ZM181.158 115.497L181.079 115.841L181.151 116.187L181.668 118.651C180.092 120.79 178.316 122.993 176.377 125.212L174.5 125.589L174.026 125.684L173.683 126.026L172.55 127.158L169.153 130.556L168.021 131.687L167.678 132.03L167.584 132.505L167.208 134.382C164.989 136.321 162.787 138.097 160.646 139.673L158.182 139.156L157.836 139.084L157.493 139.162C154.664 139.815 151.263 141.533 148.078 143.454L145.318 140.693L152.531 133.48C154.251 134.484 155.972 135.344 157.664 136.028C157.664 136.028 164.608 130.463 167.967 127.104C172.406 122.666 176.891 116.802 176.891 116.802C176.207 115.11 175.345 113.39 174.343 111.669L182.688 103.324L185.449 106.084C183.528 109.268 181.811 112.668 181.158 115.497ZM186.314 104.685L183.821 102.192L186.086 99.9252L188.114 101.953C187.522 102.818 186.916 103.735 186.314 104.685ZM189.041 100.617L187.218 98.794L189.483 96.5283L190.951 97.9947C190.39 98.7412 189.739 99.6284 189.041 100.617ZM192.935 95.4506L192.875 95.5098L192.823 95.5746C192.755 95.6578 192.428 96.0643 191.929 96.7099L190.614 95.3962L192.882 93.1297L192.935 93.1825C193.235 93.4833 193.4 93.8858 193.4 94.3162C193.4 94.7466 193.235 95.1506 192.935 95.4506ZM167.402 84.6381L183.255 100.491L184.386 99.3596L168.533 83.5069L167.402 84.6381ZM170.799 81.2404L186.652 97.0931L187.783 95.9618L171.93 80.1091L170.799 81.2404ZM164.005 88.0343L179.857 103.889L180.988 102.757L165.137 86.903L164.005 88.0343ZM149.773 127.615L151.318 128.03L152.562 123.389L151.016 122.974L149.773 127.615ZM164.253 111.697L168.894 110.453L168.48 108.907L163.839 110.151L164.253 111.697ZM144.504 115.332L139.863 116.576L140.278 118.121L144.919 116.877L144.504 115.332ZM145.885 137.861L130.033 122.009L128.901 123.14L144.755 138.992L145.885 137.861ZM157.461 111.647L154.969 112.715H154.956L151.741 103.069L150.223 103.576L153.482 113.352L141.607 118.441L142.238 119.912L153.989 114.876L154.752 117.164L156.27 116.658L155.488 114.314H170.231V112.714H157.919L157.461 111.647ZM142.488 141.258L126.635 125.404L125.504 126.535L141.357 142.389L142.488 141.258ZM118.71 133.331L134.563 149.183L135.694 148.051L119.841 132.2L118.71 133.331ZM139.091 144.654L123.238 128.803L122.107 129.934L137.96 145.786L139.091 144.654ZM143.339 123.422L144.47 124.554L147.868 121.158L146.736 120.027L143.339 123.422ZM160.891 121.158L164.288 124.554L165.419 123.422L162.022 120.027L160.891 121.158ZM166.24 117.52L172.034 119.072L172.448 117.526L166.654 115.975L166.24 117.52ZM156.841 125.79L158.391 131.583L159.937 131.169L158.387 125.375L156.841 125.79Z" fill="url(#paint1_linear_1_2)"/>
<path d="M79.3158 219.693C82.2546 219.693 83.7081 221.542 83.7081 224.296C83.7081 227.056 82.2546 228.905 79.3158 228.905H75.9817V224.857H75V223.735H75.9817V219.693L79.3158 219.693ZM79.2201 227.215C80.9159 227.215 81.6936 226.157 81.6936 224.296C81.6936 222.434 80.9159 221.376 79.2201 221.376H77.8941V223.735H79.3922V224.857H77.8941V227.215H79.2201ZM91.2034 216.346L89.7627 214.644L90.6615 214L92.3382 216.346L91.2034 216.346ZM90.9037 218.832H89.7754L91.2225 216.926H92.3254L93.7725 218.832H92.6441L91.7708 217.774L90.9037 218.832ZM91.7771 229.032C89.0678 229.032 87.0661 227.184 87.0661 224.296C87.0661 221.401 89.0678 219.565 91.7771 219.565C94.48 219.565 96.4817 221.401 96.4817 224.296C96.4817 227.183 94.48 229.032 91.7771 229.032ZM91.7771 227.279C93.3644 227.279 94.5821 226.164 94.5821 224.296C94.5821 222.434 93.3645 221.325 91.7771 221.325C90.1897 221.325 88.9721 222.434 88.9721 224.296C88.9721 226.164 90.1897 227.279 91.7771 227.279ZM106.731 219.693H108.637V228.905H106.425L102.345 222.319V228.905H100.439V219.693H102.626L106.731 226.24V219.693ZM117.203 229.032C114.545 229.032 112.588 227.196 112.588 224.321C112.588 221.408 114.59 219.565 117.299 219.565C119.078 219.565 120.55 220.35 121.353 221.733L119.677 222.625C119.192 221.682 118.325 221.229 117.299 221.229C115.705 221.229 114.507 222.326 114.507 224.277C114.507 226.157 115.629 227.368 117.369 227.368C118.548 227.368 119.632 226.782 119.894 225.437H117.375V223.9H121.704V228.905H120.2V227.63C119.607 228.503 118.612 229.032 117.203 229.032ZM137.281 219.693H139.194V228.905H137.281V225.118H133.386V228.905H131.474V219.693H133.386V223.454H137.281V219.693ZM147.282 216.346L145.841 214.644L146.74 214L148.416 216.346L147.282 216.346ZM146.982 218.832H145.854L147.301 216.926H148.404L149.851 218.832H148.722L147.849 217.774L146.982 218.832ZM147.855 229.032C145.146 229.032 143.144 227.184 143.144 224.296C143.144 221.401 145.146 219.565 147.855 219.565C150.558 219.565 152.56 221.401 152.56 224.296C152.56 227.183 150.558 229.032 147.855 229.032ZM147.855 227.279C149.443 227.279 150.66 226.164 150.66 224.296C150.66 222.434 149.443 221.325 147.855 221.325C146.268 221.325 145.05 222.434 145.05 224.296C145.05 226.164 146.268 227.279 147.855 227.279ZM166.186 229.032C163.477 229.032 161.475 227.19 161.475 224.296C161.475 221.401 163.477 219.565 166.186 219.565C168.239 219.565 169.884 220.617 170.54 222.364L168.755 223.014C168.347 221.943 167.372 221.325 166.186 221.325C164.599 221.325 163.381 222.434 163.381 224.296C163.381 226.157 164.599 227.273 166.186 227.273C167.372 227.273 168.347 226.648 168.755 225.577L170.54 226.227C169.884 227.974 168.239 229.032 166.186 229.032ZM180.471 228.905L179.802 227.005H175.932L175.263 228.905H173.306L176.697 219.693H179.037L182.428 228.905H180.471ZM176.493 225.405H179.241L177.87 221.497L176.493 225.405ZM190.089 229.032C187.38 229.032 185.378 227.184 185.378 224.296C185.378 221.401 187.38 219.565 190.089 219.565C192.792 219.565 194.794 221.401 194.794 224.296C194.794 227.183 192.792 229.032 190.089 229.032ZM190.089 227.279C191.676 227.279 192.894 226.164 192.894 224.296C192.894 222.434 191.676 221.325 190.089 221.325C188.502 221.325 187.284 222.434 187.284 224.296C187.284 226.164 188.502 227.279 190.089 227.279ZM208.42 229.032C205.711 229.032 203.709 227.19 203.709 224.296C203.709 221.401 205.711 219.565 208.42 219.565C210.473 219.565 212.117 220.617 212.774 222.364L210.989 223.014C210.581 221.943 209.606 221.325 208.42 221.325C206.833 221.325 205.615 222.434 205.615 224.296C205.615 226.157 206.833 227.273 208.42 227.273C209.606 227.273 210.581 226.648 210.989 225.577L212.774 226.227C212.117 227.974 210.473 229.032 208.42 229.032ZM222.106 214.644L220.658 216.346H219.53L221.2 214L222.106 214.644ZM220.097 217.774L219.23 218.832H218.102L219.549 216.926H220.652L222.099 218.832H220.971L220.097 217.774ZM222.705 228.905L222.035 227.005H218.166L217.496 228.905H215.539L218.931 219.693H221.27L224.662 228.905H222.705ZM218.727 225.405H221.474L220.104 221.497L218.727 225.405ZM232.074 219.693C233.878 219.693 235 221.032 235 222.67C235 224.347 233.878 225.603 232.074 225.603H230.155V228.905H228.243V219.693L232.074 219.693ZM231.755 224.002C232.711 224.002 233.158 223.473 233.158 222.645C233.158 221.848 232.711 221.293 231.755 221.293H230.155V224.002H231.755Z" fill="url(#paint2_linear_1_2)"/>
<path d="M58.0263 177.261C58.177 177.261 58.2811 177.39 58.2811 177.578C58.2811 177.756 58.1763 177.887 58.0256 177.887H57.1146C56.5001 177.887 56.0852 178.144 55.9226 178.847L49.8136 203.783H49.2023L43.5762 183.088L38.8003 203.783H38.189L31.2628 178.847C31.0419 178.112 30.6138 177.886 30.162 177.886H29.2555C29.1048 177.886 29 177.756 29 177.569C29 177.39 29.1048 177.26 29.2555 177.26H36.2988C36.4492 177.26 36.5539 177.39 36.5539 177.578C36.5539 177.757 36.4492 177.887 36.2988 177.887H34.8658C34.3393 177.887 34.0903 178.295 34.2371 178.847L39.58 198.346L44.44 177.261H44.9975L50.603 198.365L55.3462 178.847C55.4911 178.303 55.2657 177.887 54.7945 177.887H53.3037C53.153 177.887 53.0482 177.757 53.0482 177.57C53.0482 177.391 53.153 177.261 53.3037 177.261L58.0263 177.261ZM83.1575 203.115C83.3014 203.115 83.4124 203.246 83.4124 203.433C83.4124 203.612 83.3008 203.742 83.1569 203.742H75.8749C75.731 203.742 75.6194 203.612 75.6194 203.433C75.6194 203.246 75.731 203.115 75.8749 203.115H77.0391C77.6892 203.115 78.0536 202.507 77.8153 201.709L75.8118 195.181H67.5579L65.5273 201.709C65.3009 202.435 65.6573 203.115 66.3035 203.115H67.4677C67.6116 203.115 67.7232 203.246 67.7232 203.433C67.7232 203.612 67.6116 203.742 67.4677 203.742H62.6804C62.5365 203.742 62.4249 203.612 62.4249 203.433C62.4249 203.246 62.5365 203.115 62.6804 203.115H63.4566C64.2974 203.115 64.6787 202.593 64.9442 201.709L72.6433 177.114H73.2546L80.8612 201.749C81.0944 202.472 81.5403 203.115 82.4459 203.115H83.1575ZM67.7602 194.563H75.6281L71.7234 181.841L67.7602 194.563ZM104.573 177.261L104.573 184.262C104.573 184.449 104.468 184.579 104.317 184.579C104.173 184.579 104.068 184.449 104.068 184.262V182.635C104.068 179.862 102.742 177.887 100.091 177.887H98.4622C97.9923 177.887 97.6841 178.327 97.6841 178.814V202.184C97.6841 202.674 97.991 203.116 98.4622 203.116H99.2998C99.4506 203.116 99.5553 203.246 99.5553 203.425C99.5553 203.612 99.4506 203.742 99.2998 203.742H93.3138C93.1634 203.742 93.0586 203.612 93.0586 203.425C93.0586 203.246 93.1634 203.116 93.3138 203.116H94.1514C94.6213 203.116 94.9295 202.678 94.9295 202.188V178.818C94.9295 178.327 94.6226 177.887 94.1514 177.887H93.0373C90.1289 177.887 88.5466 179.544 88.5466 183.273V184.262C88.5466 184.45 88.4418 184.58 88.2914 184.58C88.1475 184.58 88.0427 184.45 88.0427 184.262V177.261H104.573ZM126.629 181.517C126.629 179.886 124.606 177.724 121.06 177.724C116.892 177.724 113.749 181.356 113.749 190.52C113.749 198.198 116.232 203.066 121.1 203.066C124.609 203.066 127.012 200.187 127.702 198.245C127.814 197.975 127.912 197.919 128.017 197.919C128.187 197.919 128.292 198.081 128.266 198.291C128.061 199.18 127.359 200.42 126.285 201.478C125.023 202.818 123.143 204 120.705 204C114.379 204 110.824 198.267 110.824 190.52C110.824 181.729 115.113 177 120.636 177C125.474 177 128.324 180.238 128.324 183.489C128.324 185.392 127.498 186.199 126.712 186.199C125.971 186.199 125.263 185.529 125.263 184.424C125.263 182.983 126.629 182.667 126.629 181.517ZM154.835 203.115C154.986 203.115 155.09 203.245 155.09 203.424C155.09 203.611 154.985 203.741 154.835 203.741H148.849C148.699 203.741 148.594 203.611 148.594 203.424C148.594 203.245 148.699 203.115 148.849 203.115H149.687C150.157 203.115 150.465 202.677 150.465 202.187V190.06H139.57V202.184C139.57 202.674 139.877 203.116 140.348 203.116H141.185C141.336 203.116 141.441 203.246 141.441 203.425C141.441 203.612 141.336 203.742 141.185 203.742H135.199C135.049 203.742 134.944 203.612 134.944 203.425C134.944 203.246 135.049 203.116 135.199 203.116H136.037C136.507 203.116 136.815 202.678 136.815 202.188V178.818C136.815 178.327 136.508 177.887 136.037 177.887H135.199C135.049 177.887 134.944 177.756 134.944 177.578C134.944 177.39 135.049 177.26 135.199 177.26H141.185C141.336 177.26 141.441 177.39 141.441 177.578C141.441 177.756 141.336 177.887 141.185 177.887H140.348C139.878 177.887 139.57 178.327 139.57 178.815V189.433H150.465V178.818C150.465 178.326 150.158 177.886 149.687 177.886H148.849C148.699 177.886 148.594 177.756 148.594 177.577C148.594 177.39 148.699 177.26 148.849 177.26H154.835C154.986 177.26 155.09 177.39 155.09 177.577C155.09 177.756 154.986 177.886 154.835 177.886H153.998C153.528 177.886 153.22 178.326 153.22 178.814V202.184C153.22 202.674 153.526 203.116 153.998 203.116L154.835 203.115ZM189.123 177.261C189.274 177.261 189.378 177.39 189.378 177.578C189.378 177.756 189.274 177.887 189.123 177.887H188.212C187.597 177.887 187.182 178.144 187.02 178.847L180.911 203.783H180.3L174.673 183.088L169.897 203.783H169.286L162.36 178.847C162.139 178.112 161.711 177.886 161.259 177.886H160.353C160.202 177.886 160.097 177.756 160.097 177.569C160.097 177.39 160.202 177.26 160.353 177.26H167.396C167.546 177.26 167.651 177.39 167.651 177.578C167.651 177.757 167.546 177.887 167.396 177.887H165.963C165.437 177.887 165.188 178.295 165.334 178.847L170.677 198.346L175.537 177.261H176.095L181.7 198.365L186.443 178.847C186.588 178.303 186.363 177.887 185.892 177.887H184.401C184.25 177.887 184.145 177.757 184.145 177.57C184.145 177.391 184.25 177.261 184.401 177.261L189.123 177.261ZM203.494 177.009C209.627 177.009 213.193 182.687 213.193 190.362C213.193 198.036 209.627 204 203.494 204C197.355 204 193.796 198.036 193.796 190.362C193.796 182.687 197.355 177.009 203.494 177.009ZM203.494 203.311C208.5 203.311 210.268 197.113 210.268 190.362C210.268 183.61 208.5 177.7 203.494 177.7C198.489 177.7 196.721 183.611 196.721 190.362C196.721 197.113 198.489 203.311 203.494 203.311ZM237.148 202.06C237.285 202.06 237.37 202.181 237.37 202.343C237.37 202.822 236.207 203.997 234.712 203.997C228.334 203.997 234.503 190.955 225.589 190.955H224.45V202.184C224.45 202.674 224.757 203.116 225.228 203.116H226.066C226.216 203.116 226.321 203.246 226.321 203.425C226.321 203.612 226.216 203.742 226.066 203.742H220.08C219.929 203.742 219.825 203.612 219.825 203.425C219.825 203.246 219.929 203.116 220.08 203.116H220.917C221.387 203.116 221.696 202.678 221.696 202.188V178.818C221.696 178.327 221.389 177.887 220.917 177.887H220.08C219.929 177.887 219.825 177.757 219.825 177.578C219.825 177.391 219.929 177.26 220.08 177.26H227.168C231.454 177.26 234.35 179.354 234.35 183.613C234.35 187.371 231.987 189.948 228.01 190.589C236.45 192.036 232.352 202.996 235.539 202.996C236.539 202.996 236.836 202.06 237.148 202.06ZM224.45 190.32L226.186 190.321C230.183 190.321 231.472 186.789 231.472 183.664C231.472 180.086 230.082 177.887 226.437 177.887H225.228C224.758 177.887 224.45 178.327 224.45 178.815L224.45 190.32ZM256.141 196.741C256.285 196.741 256.39 196.871 256.39 197.058V203.741H242.478C242.327 203.741 242.222 203.611 242.222 203.424C242.222 203.245 242.327 203.115 242.478 203.115H243.315C243.785 203.115 244.093 202.677 244.093 202.187V178.817C244.093 178.326 243.786 177.886 243.315 177.886H242.478C242.327 177.886 242.222 177.756 242.222 177.577C242.222 177.39 242.327 177.26 242.478 177.26H248.464C248.614 177.26 248.719 177.39 248.719 177.577C248.719 177.756 248.614 177.886 248.464 177.886H247.626C247.156 177.886 246.848 178.326 246.848 178.814V202.184C246.848 202.673 247.155 203.115 247.626 203.115H251.908C254.54 203.115 255.886 200.494 255.886 197.788V197.059C255.886 196.872 255.991 196.741 256.141 196.741ZM269.157 177.261C275.895 177.261 281.053 180.597 281.053 190.321C281.053 197.956 276.476 203.743 269.155 203.743H261.929C261.779 203.743 261.674 203.613 261.674 203.425C261.674 203.247 261.779 203.116 261.929 203.116H262.767C263.237 203.116 263.545 202.676 263.545 202.188V178.818C263.545 178.329 263.238 177.887 262.767 177.887H261.929C261.779 177.887 261.674 177.757 261.674 177.578C261.674 177.391 261.779 177.261 261.929 177.261L269.157 177.261ZM269.156 203.116C273.776 203.116 278.131 198.639 278.131 190.321C278.131 181.922 274.134 177.888 269.158 177.888H267.079C266.609 177.888 266.301 178.328 266.301 178.816V202.186C266.301 202.675 266.608 203.117 267.079 203.117L269.156 203.116Z" fill="url(#paint3_linear_1_2)"/>
</g>
<defs>
<linearGradient id="paint0_linear_1_2" x1="-1.52588e-05" y1="-0.000198364" x2="310" y2="-0.000198364" gradientUnits="userSpaceOnUse">
<stop stop-color="#905E26"/>
<stop offset="0.5" stop-color="#F5EC9B"/>
<stop offset="1" stop-color="#905E26"/>
</linearGradient>
<linearGradient id="paint1_linear_1_2" x1="115" y1="73" x2="195" y2="73" gradientUnits="userSpaceOnUse">
<stop stop-color="#905E26"/>
<stop offset="0.5" stop-color="#F5EC9B"/>
<stop offset="1" stop-color="#905E26"/>
<stop offset="1" stop-color="#905E26"/>
</linearGradient>
<linearGradient id="paint2_linear_1_2" x1="75" y1="214" x2="235" y2="214" gradientUnits="userSpaceOnUse">
<stop stop-color="#905E26"/>
<stop offset="0.5" stop-color="#F5EC9B"/>
<stop offset="1" stop-color="#905E26"/>
</linearGradient>
<linearGradient id="paint3_linear_1_2" x1="29" y1="177" x2="281.053" y2="177" gradientUnits="userSpaceOnUse">
<stop stop-color="#905E26"/>
<stop offset="0.5" stop-color="#F5EC9B"/>
<stop offset="1" stop-color="#905E26"/>
</linearGradient>
<clipPath id="clip0_1_2">
<rect width="310" height="306.173" fill="white"/>
</clipPath>
</defs>
</svg>
